<?xml version="1.0" standalone="no"?><!DOCTYPE svg PUBLIC "-//W3C//DTD SVG 1.1//EN" "http://www.w3.org/Graphics/SVG/1.1/DTD/svg11.dtd"><svg t="1600141260742" class="icon" viewBox="0 0 1024 1024" version="1.1" xmlns="http://www.w3.org/2000/svg" p-id="7904" xmlns:xlink="http://www.w3.org/1999/xlink" width="48" height="48"><defs><style type="text/css"></style></defs><path d="M188.174242 160.075789C57.206398 296.40371 61.599452 513.033539 197.925327 643.98194c136.325875 130.950448 352.958774 126.554324 483.906152-9.773598 130.928958-136.306432 126.556371-352.955704-9.788947-483.882616C535.756565 19.37528 319.104223 23.77038 188.174242 160.075789zM592.961428 548.892235c-83.795475 87.24504-222.428905 90.014106-309.694411 6.239098-87.266529-83.812871-90.057085-222.468814-6.260587-309.715901 83.812871-87.266529 222.467791-90.035596 309.736367-6.240121C673.98579 322.968739 676.757926 461.624682 592.961428 548.892235zM606.867136 668.703995 784.449647 839.264579c34.8139 33.449833 90.13281 32.346709 123.583666-2.492774 33.43039-34.808784 32.328289-90.131787-2.487657-123.583666L727.962122 542.649044 606.867136 668.703995z" p-id="7905" fill="#101010"></path></svg>